HIERARCHY
ROOT Hips
{
	OFFSET 0.000000 88.474243 0.000000
	CHANNELS 6 Xposition Yposition Zposition Zrotation Yrotation Xrotation 
	JOINT Hips_Spine
	{
		OFFSET 0.000000 0.000000 0.000000
		CHANNELS 3 Zrotation Yrotation Xrotation
		JOINT Spine
		{
			OFFSET 0.005100 8.711998 -0.691000
			CHANNELS 3 Zrotation Yrotation Xrotation
			JOINT Spine1
			{
				OFFSET -0.009200 8.660301 -1.275000
				CHANNELS 3 Zrotation Yrotation Xrotation
				JOINT Spine2
				{
					OFFSET 0.006300 9.852501 -1.857000
					CHANNELS 3 Zrotation Yrotation Xrotation
					JOINT Spine2_Neck
					{
						OFFSET 0.000000 0.000000 0.000000
						CHANNELS 3 Zrotation Yrotation Xrotation
						JOINT Neck
						{
							OFFSET 0.016300 11.420799 -0.263300
							CHANNELS 3 Zrotation Yrotation Xrotation
							End Site #name: Head
							{
								OFFSET -0.019200 9.262405 2.362500
							}
						}
					}
					JOINT Spine2_LeftShoulder
					{
						OFFSET 0.000000 0.000000 0.000000
						CHANNELS 3 Zrotation Yrotation Xrotation
						JOINT LeftShoulder
						{
							OFFSET 5.616900 6.732201 -0.345700
							CHANNELS 3 Zrotation Yrotation Xrotation
							JOINT LeftArm
							{
								OFFSET 10.664888 -0.183372 -2.440700
								CHANNELS 3 Zrotation Yrotation Xrotation
								JOINT LeftForeArm
								{
									OFFSET 27.459126 0.000000 0.000000
									CHANNELS 3 Zrotation Yrotation Xrotation
									End Site #name: LeftHand
									{
										OFFSET 21.306858 0.000000 0.000000
									}
								}
							}
						}
					}
					JOINT Spine2_RightShoulder
					{
						OFFSET 0.000000 0.000000 0.000000
						CHANNELS 3 Zrotation Yrotation Xrotation
						JOINT RightShoulder
						{
							OFFSET -5.580300 6.737503 -0.344400
							CHANNELS 3 Zrotation Yrotation Xrotation
							JOINT RightArm
							{
								OFFSET -10.679335 -0.188484 -2.383900
								CHANNELS 3 Zrotation Yrotation Xrotation
								JOINT RightForeArm
								{
									OFFSET -27.503529 0.000000 0.000000
									CHANNELS 3 Zrotation Yrotation Xrotation
									End Site #name: RightHand
									{
										OFFSET -21.306808 0.000000 0.000000
									}
								}
							}
						}
					}
				}
			}
		}
	}
	JOINT Hips_LeftUpLeg
	{
		OFFSET 0.000000 0.000000 0.000000
		CHANNELS 3 Zrotation Yrotation Xrotation
		JOINT LeftUpLeg
		{
			OFFSET 6.857700 -6.739601 0.312100
			CHANNELS 3 Zrotation Yrotation Xrotation
			JOINT LeftLeg
			{
				OFFSET -0.367590 -34.731552 -4.572400
				CHANNELS 3 Zrotation Yrotation Xrotation
				End Site #name: LeftFoot
				{
					OFFSET 0.367590 -34.656704 -6.067400
				}
			}
		}
	}
	JOINT Hips_RightUpLeg
	{
		OFFSET 0.000000 0.000000 0.000000
		CHANNELS 3 Zrotation Yrotation Xrotation
		JOINT RightUpLeg
		{
			OFFSET -6.876100 -6.733299 0.301000
			CHANNELS 3 Zrotation Yrotation Xrotation
			JOINT RightLeg
			{
				OFFSET 0.347353 -34.795158 -4.515900
				CHANNELS 3 Zrotation Yrotation Xrotation
				End Site #name: RightFoot
				{
					OFFSET -0.347353 -34.589367 -6.070300
				}
			}
		}
	}
}
MOTION
Frames: 10
Frame Time: 0.041667
0.175956 0.047473 -0.023987 1.454830 16.475053 -6.191689 -0.000000 0.000000 0.000000 -0.000965 -2.034679 -0.472358 0.461715 -1.591602 -1.838315 0.000000 0.000000 0.000000 0.204200 -0.933785 -1.993774 4.042491 0.692670 -4.863959 0.605441 -1.746495 -2.697687 -15.849404 -5.303636 2.179267 -47.167600 -0.674475 7.564597 -0.491978 -34.046144 6.140282 0.577700 -1.326673 -1.135830 12.739890 10.845507 4.558962 57.474158 -7.741183 -6.182632 -0.811383 54.220079 0.524067 0.000000 0.000000 0.000000 -10.701113 20.325282 -4.882221 -1.738401 -2.735837 23.206764 0.000000 0.000000 0.000000 -5.363671 18.000348 -9.564415 8.183599 3.120215 -1.504047 
0.743092 -0.031818 0.104466 3.498250 15.580160 -6.660833 -0.000000 0.000000 0.000000 -2.080238 -2.382765 -0.882984 0.731715 -1.756563 -2.104040 0.000000 0.000000 0.000000 0.357280 -0.878606 -3.193646 4.614660 -1.244898 -2.792092 0.012196 -1.707666 -4.006113 -20.878669 -2.728474 1.043436 -45.463253 0.156809 -5.009111 -0.928860 -28.047219 4.028174 0.211984 -1.670605 -1.256081 12.720932 8.175088 1.832305 60.693858 -2.617766 -7.954383 -0.977965 56.418590 -1.101413 0.000000 0.000000 -0.000000 -13.921126 17.772147 -1.639530 -0.779625 1.056443 20.626335 0.000000 0.000000 0.000000 -9.516429 21.183964 -10.464488 8.795531 3.348480 0.331058 
1.049555 -0.064772 0.099229 5.094004 12.779051 -6.865098 -0.000000 0.000000 -0.000000 -3.568412 -3.411962 -0.596849 0.706054 -1.601118 -2.257613 0.000000 0.000000 0.000000 0.778936 -1.364654 -3.152186 3.804003 -2.459904 -2.856660 -0.356275 -1.727443 -3.682514 -23.988835 -2.058802 2.674036 -46.158598 5.889921 -8.905476 -1.371251 -28.261577 3.998320 0.254435 -1.700432 -1.246621 11.683768 7.222492 2.020266 59.929351 -0.466951 -6.027551 -0.400930 50.360760 -0.775793 0.000000 0.000000 -0.000000 -15.813219 17.609201 0.634841 -1.120570 1.642736 18.382860 0.000000 0.000000 0.000000 -12.130771 22.776707 -14.245293 8.498297 1.970637 7.509462 
1.306785 -0.085760 0.049915 5.870050 10.737936 -6.897548 -0.000000 0.000000 -0.000000 -5.238433 -3.141564 0.470123 0.654524 -1.550504 -2.263368 0.000000 0.000000 0.000000 0.932895 -1.530024 -3.161720 3.565026 -4.074492 -2.157267 -0.361718 -1.770159 -3.546148 -25.238096 -1.768617 4.128149 -45.048331 7.541331 -8.497171 -0.971653 -26.897459 6.417409 0.321941 -1.745681 -1.233870 10.225232 7.289348 1.881266 59.415191 1.777219 -4.673994 -0.185932 50.412323 -0.647256 0.000000 0.000000 -0.000000 -16.764559 18.027248 1.264376 -1.645781 2.103629 17.587021 0.000000 0.000000 0.000000 -14.080181 22.449750 -17.959984 8.198661 1.531711 15.643905 
1.610971 -0.088973 -0.012180 6.179961 10.189562 -6.672417 -0.000000 0.000000 -0.000000 -6.225469 -2.568916 0.723504 0.525768 -1.509166 -2.294223 0.000000 0.000000 0.000000 0.650528 -1.641307 -3.340046 3.470455 -5.032205 -1.891152 -0.422304 -1.861197 -3.628318 -26.859547 -1.346537 5.237626 -42.305753 8.025479 -8.597923 -0.361010 -23.218841 8.572911 0.266346 -1.786514 -1.303455 8.333444 7.468254 1.699593 60.063858 2.865030 -4.406811 -0.102711 52.125521 -0.752566 0.000000 0.000000 -0.000000 -17.290061 18.544949 1.417137 -2.008953 2.391502 17.190235 0.000000 0.000000 0.000000 -15.471745 21.500618 -20.252488 7.910916 1.494700 21.268941 
1.947750 -0.080133 -0.077958 6.228348 9.924613 -6.534481 -0.000000 0.000000 -0.000000 -6.443095 -2.087652 0.177332 0.300761 -1.473357 -2.413425 0.000000 0.000000 0.000000 0.245605 -1.708523 -3.594195 3.265960 -5.422748 -1.806167 -0.638563 -1.939827 -3.840799 -28.754096 -0.698187 5.860415 -40.117611 8.069054 -8.152933 0.149316 -18.988010 9.914296 0.117685 -1.845696 -1.469984 6.548343 7.574998 1.523915 61.600059 2.584298 -5.309086 0.061154 52.392552 -0.764482 0.000000 0.000000 -0.000000 -17.646875 18.946235 1.309951 -1.938148 2.668406 16.929454 0.000000 0.000000 0.000000 -16.301738 20.386189 -21.117582 7.653068 1.781551 24.439498 
2.297859 -0.061910 -0.142231 6.092591 10.152475 -6.450242 -0.000000 0.000000 -0.000000 -6.237552 -1.713524 -0.567888 0.026402 -1.406826 -2.622932 0.000000 0.000000 0.000000 -0.107471 -1.712581 -3.777858 3.047959 -5.602799 -1.716081 -0.936437 -1.926237 -4.097070 -30.687794 0.175710 6.072325 -38.342906 8.317520 -7.565109 0.557993 -14.304121 10.557667 -0.184013 -1.829358 -1.647637 5.485967 7.590833 1.408865 63.388514 1.961845 -7.053681 0.274383 51.615165 -0.712652 0.000000 0.000000 -0.000000 -17.887970 19.204301 0.961322 -1.718621 2.886818 16.886002 0.000000 0.000000 0.000000 -16.821928 19.226210 -21.091436 7.284293 1.845550 25.845813 
2.638405 -0.034300 -0.197185 5.838280 10.925274 -6.331768 -0.000000 0.000000 -0.000000 -6.178405 -1.366121 -1.230361 -0.206543 -1.297543 -2.806173 0.000000 0.000000 0.000000 -0.371166 -1.680023 -3.918512 2.832428 -5.589855 -1.556396 -1.208834 -1.877245 -4.308988 -32.116783 0.886946 5.994794 -37.167521 8.524587 -7.302908 0.844911 -11.182763 10.382344 -0.475999 -1.756060 -1.768160 4.884483 7.571889 1.389011 65.928759 1.785623 -8.202194 0.479485 50.350577 -0.684968 0.000000 0.000000 -0.000000 -17.923984 19.309100 0.528125 -1.558282 3.075126 16.883151 0.000000 0.000000 0.000000 -17.052103 17.850825 -20.567141 6.745613 1.743167 26.103344 
2.942538 0.004177 -0.238047 5.462380 12.179270 -6.216120 -0.000000 0.000000 -0.000000 -6.469516 -1.067405 -1.477296 -0.365005 -1.173519 -2.950977 0.000000 0.000000 0.000000 -0.561418 -1.620192 -4.027015 2.771736 -5.258885 -1.397865 -1.400801 -1.796992 -4.488710 -32.834475 1.328577 5.914039 -36.661104 8.476325 -7.199497 0.849973 -10.008241 9.999326 -0.748132 -1.641633 -1.842144 4.542788 7.449238 1.389019 68.025774 1.428294 -8.534285 0.638672 48.461987 -0.610022 0.000000 0.000000 -0.000000 -17.796835 19.234357 0.074250 -1.343329 3.254014 16.933195 0.000000 0.000000 0.000000 -17.002768 16.241375 -19.771175 6.192223 1.547214 25.650204 
3.205917 0.054174 -0.266421 5.002371 13.604171 -6.096733 -0.000000 0.000000 -0.000000 -6.963035 -0.816068 -1.463155 -0.486370 -1.051880 -3.103604 0.000000 0.000000 0.000000 -0.721759 -1.553619 -4.122113 2.829268 -4.734058 -1.290069 -1.537102 -1.718891 -4.649430 -32.977479 1.595120 5.895759 -36.785970 8.614068 -7.373175 0.777675 -9.998859 9.617606 -0.989379 -1.514781 -1.904804 4.191671 7.280519 1.369213 69.638291 1.561598 -8.036767 0.771265 46.656567 -0.550746 0.000000 0.000000 -0.000000 -17.498734 19.068204 -0.426307 -1.097559 3.454535 16.979560 0.000000 0.000000 0.000000 -16.754945 14.386831 -18.758359 5.631384 1.293689 24.559407 
